<svg xmlns="http://www.w3.org/2000/svg" width="199" height="48" viewBox="0 0 199 48">
  <g id="Сгруппировать_14644" data-name="Сгруппировать 14644" transform="translate(0 0)">
    <path id="Контур_12666" data-name="Контур 12666" d="M1911.623-10127.481l1.337-.872,5.114-6.751h-3.893l-4.838,6.751-.806.345v-7.1h-3.409v16.125h3.409v-6.817h.9l5.207,6.817h4.216l-5.852-7.578Z" transform="translate(-1843.793 10151.042)" fill="#1a1832"/>
    <path id="Контур_12667" data-name="Контур 12667" d="M1960.692-10134.807a6.84,6.84,0,0,0-2.361-.785,17.851,17.851,0,0,0-2.6-.193q-1.266,0-2.534.1c-.845.068-1.613.17-2.3.291v15.965h3.409v-5.441c.092.016.23.033.415.049s.379.025.587.033.4.01.588.01h.392a10.149,10.149,0,0,0,2.511-.311,6.564,6.564,0,0,0,2.177-.977,4.926,4.926,0,0,0,1.532-1.74,5.394,5.394,0,0,0,.577-2.594,5.086,5.086,0,0,0-.669-2.771A4.772,4.772,0,0,0,1960.692-10134.807Zm-1.555,5.736a2.378,2.378,0,0,1-.841.818,3.185,3.185,0,0,1-1.187.387,9.311,9.311,0,0,1-1.337.094c-.076,0-.18,0-.31-.01s-.273-.014-.426-.023-.3-.02-.438-.033-.238-.033-.3-.047v-4.791a3.725,3.725,0,0,1,.725-.092q.449-.023.934-.023a8.711,8.711,0,0,1,1.278.092,3.5,3.5,0,0,1,1.129.348,2.034,2.034,0,0,1,.795.7,2.107,2.107,0,0,1,.3,1.186A2.632,2.632,0,0,1,1959.137-10129.07Z" transform="translate(-1874.099 10151.494)" fill="#1a1832"/>
    <path id="Контур_12668" data-name="Контур 12668" d="M1997.739-10126.419l-1.244,2.142h-.138l.231-2.142v-8.686h-3.41v16.125h2.534l6.612-8.868,1.175-2.072h.115l-.185,2.047v8.894h3.41v-16.125h-2.557Z" transform="translate(-1902.103 10151.042)" fill="#1a1832"/>
    <path id="Контур_12669" data-name="Контур 12669" d="M2042.488-10118.979h3.409v-13.131h6.174v13.131h3.409v-16.125h-12.992Z" transform="translate(-1934.759 10151.042)" fill="#1a1832"/>
    <path id="Контур_12670" data-name="Контур 12670" d="M2086.206-10132.11h5.115v13.131h3.41v-13.131h5.115v-2.994h-13.639Z" transform="translate(-1963.71 10151.042)" fill="#1a1832"/>
    <path id="Контур_12671" data-name="Контур 12671" d="M2140.224-10133.732a6.32,6.32,0,0,0-2.325-1.718,8.123,8.123,0,0,0-3.26-.608,8.226,8.226,0,0,0-3.133.565,6.24,6.24,0,0,0-2.339,1.633,7.27,7.27,0,0,0-1.463,2.641,11.5,11.5,0,0,0-.507,3.546,11.873,11.873,0,0,0,.461,3.409,7.268,7.268,0,0,0,1.394,2.649,6.309,6.309,0,0,0,2.327,1.718,8.08,8.08,0,0,0,3.26.61,8.148,8.148,0,0,0,3.11-.565,6.338,6.338,0,0,0,2.35-1.637,7.26,7.26,0,0,0,1.485-2.636,11.249,11.249,0,0,0,.519-3.549,11.655,11.655,0,0,0-.472-3.409A7.439,7.439,0,0,0,2140.224-10133.732Zm-2.752,10.207a3.459,3.459,0,0,1-2.834,1.246,3.568,3.568,0,0,1-1.717-.394,3.192,3.192,0,0,1-1.186-1.106,5.33,5.33,0,0,1-.692-1.706,9.614,9.614,0,0,1-.23-2.188,6.647,6.647,0,0,1,1.013-4.1,3.375,3.375,0,0,1,2.811-1.292,3.542,3.542,0,0,1,1.762.407,3.3,3.3,0,0,1,1.2,1.128,4.984,4.984,0,0,1,.679,1.714,10.432,10.432,0,0,1,.208,2.143A6.628,6.628,0,0,1,2137.472-10123.525Z" transform="translate(-1990.857 10151.673)" fill="#1a1832"/>
    <path id="Контур_12672" data-name="Контур 12672" d="M2188.346-10128.629h-6.45v-6.476h-3.41v16.125h3.41v-6.654h6.45v6.654h3.409v-16.125h-3.409Z" transform="translate(-2024.822 10151.042)" fill="#1a1832"/>
    <path id="Контур_12673" data-name="Контур 12673" d="M2231.2-10126.419l-1.244,2.142h-.139l.231-2.142v-8.686h-3.41v16.125h2.533l6.613-8.868,1.175-2.072h.115l-.185,2.047v8.894h3.41v-16.125h-2.556Z" transform="translate(-2056.711 10151.042)" fill="#1a1832"/>
    <path id="Контур_12674" data-name="Контур 12674" d="M2272.333-10135.1v2.994h5.115v13.131h3.41v-13.131h5.114v-2.994Z" transform="translate(-2086.971 10151.042)" fill="#1a1832"/>
    <rect id="Прямоугольник_11462" data-name="Прямоугольник 11462" width="15.119" height="48" fill="#1a1832"/>
    <path id="Контур_12675" data-name="Контур 12675" d="M1798.51-10183.1h-18.036v48h18.036l-11.128-24Z" transform="translate(-1761.241 10183.104)" fill="#1a1832"/>
    <path id="Контур_12676" data-name="Контур 12676" d="M1824.539-10183.1l-11.412,24,11.412,24h15.179l-11.481-24,11.481-24Z" transform="translate(-1782.867 10183.104)" fill="#1a1832"/>
  </g>
</svg>
